<?xml version="1.0" encoding="utf-8"?>
<svg xmlns="http://www.w3.org/2000/svg" xmlns:svg="http://www.w3.org/2000/svg" version="1.1" viewBox="0 0 1400 440">
	<title>The titlepage for the Standard Ebooks edition of Give Me Liberty, or Give Me Death, by Patrick Henry</title>
	<g aria-label="GIVE ME LIBERTY,">
		<path d="M 321.97953,86.771929 H 286.3304 v 13.567251 h 17.77778 c 0,9.45029 -8.32748,14.87719 -16.74854,14.87719 -10.8538,0 -19.64912,-10.66666 -19.64912,-23.766078 0,-13.380117 8.79532,-24.140352 19.64912,-24.140352 6.83041,0 12.72515,2.713451 17.21638,9.918129 L 316.08479,64.59649 c -6.73684,-8.140351 -16.18714,-13.192983 -29.75439,-13.192983 -21.7076,0 -37.61403,17.871346 -37.61403,40.046785 0,22.081868 16.8421,39.953218 37.61403,39.953218 15.1579,0 31.4386,-8.32749 35.64913,-27.88304 z"/>
		<path d="M 352.25438,52.807016 H 334.66374 V 130 h 17.59064 z"/>
		<path d="m 384.63742,130 h 13.84796 L 430.85965,52.807016 H 411.02339 L 391.5614,103.52047 372.09941,52.807016 h -19.83625 z"/>
		<path d="M 482.94297,52.807016 H 438.77923 V 130 h 44.16374 v -15.4386 h -26.5731 V 99.029239 h 25.4503 V 83.590642 h -25.4503 V 68.245613 h 26.5731 z"/>
		<path d="m 592.45323,130 h 17.59064 L 603.11989,52.807016 H 584.40644 L 567.28364,97.345029 550.16083,52.807016 H 531.44738 L 524.5234,130 h 17.59065 l 3.64912,-45.754387 h 0.46783 l 15.81287,45.286547 h 10.47953 l 15.81287,-45.286547 h 0.46783 z"/>
		<path d="M 666.25439,52.807016 H 622.09065 V 130 h 44.16374 v -15.4386 h -26.5731 V 99.029239 h 25.45029 V 83.590642 H 639.68129 V 68.245613 h 26.5731 z"/>
		<path d="M 729.54241,52.807016 H 711.95176 V 130 h 44.16375 v -15.4386 h -26.5731 z"/>
		<path d="M 787.35671,52.807016 H 769.76606 V 130 h 17.59065 z"/>
		<path d="M 803.64033,52.807016 V 130 h 29.28655 c 16,0 25.26316,-8.79532 25.26316,-21.52047 0,-12.444443 -6.83041,-17.777776 -16.46784,-19.461987 6.54971,-3.368421 9.63743,-9.450292 9.63743,-16.561404 0,-14.690058 -10.47953,-19.649123 -23.76608,-19.649123 z m 17.59064,30.222223 V 66.374268 h 1.40351 c 7.67252,0 11.69591,2.339181 11.69591,7.859649 0,6.456141 -4.11696,8.795322 -11.69591,8.795322 z m 0,33.403511 V 98.187134 h 5.52047 c 8.32749,0 12.91228,2.526316 12.91228,9.637426 0,6.08187 -4.58479,8.60819 -12.91228,8.60819 z"/>
		<path d="M 915.12133,52.807016 H 870.95759 V 130 h 44.16374 v -15.4386 h -26.5731 V 99.029239 h 25.4503 V 83.590642 h -25.4503 V 68.245613 h 26.5731 z"/>
		<path d="M 930.2339,52.807016 V 130 h 17.59064 V 99.497075 L 971.40349,130 h 22.36257 l -26.5731,-31.906433 c 9.45029,-2.994152 15.81287,-10.760234 15.81287,-22.362574 0,-15.157895 -10.8538,-22.923977 -25.16959,-22.923977 z m 17.59064,34.245615 V 66.842104 h 2.05848 c 6.64328,0 14.59649,0.467836 14.59649,10.105263 0,9.637428 -7.95321,10.105264 -14.59649,10.105264 z"/>
		<path d="m 993.78216,68.245613 h 18.33914 V 130 h 17.5907 V 68.245613 h 18.3392 V 52.807016 h -54.26904 z"/>
		<path d="m 1050.9649,52.807016 28.4445,42.5731 V 130 H 1097 V 95.380116 l 28.4445,-42.5731 h -21.1462 l -16.0936,24.701755 -16.0936,-24.701755 z"/>
		<path d="m 1137.0044,109.97661 c -5.8948,0 -10.6667,4.77193 -10.6667,10.76023 0,4.95907 3.462,8.70176 8.0468,9.82456 -1.4971,7.76609 -7.1111,13.09942 -7.1111,13.09942 l 4.7719,3.92982 c 7.6725,-6.36257 15.7193,-15.53216 15.7193,-26.8538 0,-5.9883 -4.7719,-10.76023 -10.7602,-10.76023 z"/>
	</g>
	<g aria-label="OR GIVE ME DEATH">
		<path d="m 207.59795,191.35672 c 0,22.54971 16.09356,40.04679 38.92397,40.04679 22.17544,0 38.83041,-17.49708 38.83041,-40.04679 0,-22.5497 -17.40351,-39.95321 -38.83041,-39.95321 -21.23976,0 -38.92397,17.40351 -38.92397,39.95321 z m 18.99415,0 c 0,-11.50877 6.36257,-23.01754 19.92982,-23.01754 13.66082,0 19.83626,11.50877 19.83626,23.01754 0,11.50878 -5.80117,23.01755 -19.83626,23.01755 -14.40935,0 -19.92982,-11.50877 -19.92982,-23.01755 z"/>
		<path d="M 298.11403,152.80702 V 230 h 17.59064 V 199.49708 L 339.28362,230 h 22.36257 l -26.5731,-31.90643 c 9.45029,-2.99416 15.81287,-10.76024 15.81287,-22.36258 0,-15.15789 -10.8538,-22.92397 -25.16959,-22.92397 z m 17.59064,34.24561 V 166.8421 h 2.05848 c 6.64327,0 14.59649,0.46784 14.59649,10.10527 0,9.63742 -7.95322,10.10526 -14.59649,10.10526 z"/>
		<path d="m 470.56872,186.77193 h -35.64913 v 13.56725 h 17.77778 c 0,9.45029 -8.32749,14.87719 -16.74854,14.87719 -10.8538,0 -19.64912,-10.66666 -19.64912,-23.76608 0,-13.38012 8.79532,-24.14035 19.64912,-24.14035 6.83041,0 12.72515,2.71345 17.21638,9.91813 l 11.50877,-12.63158 c -6.73684,-8.14035 -16.18714,-13.19298 -29.75439,-13.19298 -21.7076,0 -37.61403,17.87134 -37.61403,40.04678 0,22.08187 16.8421,39.95322 37.61403,39.95322 15.1579,0 31.4386,-8.32749 35.64913,-27.88304 z"/>
		<path d="M 500.84357,152.80702 H 483.25293 V 230 h 17.59064 z"/>
		<path d="m 533.22659,230 h 13.84795 l 32.37427,-77.19298 h -19.83625 l -19.46199,50.71345 -19.46199,-50.71345 h -19.83626 z"/>
		<path d="M 631.53215,152.80702 H 587.36841 V 230 h 44.16374 v -15.4386 h -26.5731 v -15.53216 h 25.45029 v -15.4386 h -25.45029 v -15.34503 h 26.5731 z"/>
		<path d="m 741.04239,230 h 17.59064 l -6.92398,-77.19298 H 732.9956 l -17.1228,44.53801 -17.12281,-44.53801 H 680.03654 L 673.11256,230 h 17.59064 l 3.64913,-45.75439 h 0.46783 l 15.81287,45.28655 h 10.47953 l 15.81287,-45.28655 h 0.46783 z"/>
		<path d="M 814.84355,152.80702 H 770.67981 V 230 h 44.16374 v -15.4386 h -26.5731 v -15.53216 h 25.45029 v -15.4386 h -25.45029 v -15.34503 h 26.5731 z"/>
		<path d="M 860.54095,152.80702 V 230 h 22.36258 c 21.23976,0 38.92397,-16.09357 38.92397,-38.64328 0,-22.45614 -17.77778,-38.5497 -38.92397,-38.5497 z m 17.59065,61.47368 v -45.75439 h 2.71345 c 13.09941,0 21.9883,10.0117 21.9883,22.92398 -0.0936,12.91228 -8.98246,22.83041 -21.9883,22.83041 z"/>
		<path d="M 978.78361,152.80702 H 934.61987 V 230 h 44.16374 v -15.4386 h -26.5731 v -15.53216 h 25.4503 v -15.4386 h -25.4503 v -15.34503 h 26.5731 z"/>
		<path d="m 1033.6491,152.80702 h -16.2807 L 986.21054,230 h 18.90056 l 5.7076,-15.4386 h 29.3801 L 1045.9064,230 h 18.9006 z m 0.5614,46.31579 h -17.4035 l 8.6082,-22.45614 h 0.1872 z"/>
		<path d="m 1063.2924,168.24561 h 18.3392 V 230 h 17.5906 v -61.75439 h 18.3392 v -15.43859 h -54.269 z"/>
		<path d="m 1146.4869,199.02924 h 24.8889 V 230 h 17.5906 v -77.19298 h -17.5906 v 30.78362 h -24.8889 v -30.78362 h -17.5907 V 230 h 17.5907 z"/>
	</g>
	<g aria-label="PATRICK HENRY">
		<path d="M 383.98301,332.10526 V 390 h 13.19298 v -21.47368 h 7.92982 c 11.29825,0 19.78948,-6.66667 19.78948,-18.5965 0,-11.99999 -8.49123,-17.82456 -19.78948,-17.82456 z M 397.17599,358 v -15.36842 h 3.7193 c 5.19298,0 10.10526,1.75439 10.10526,7.7193 0,5.89473 -4.91228,7.64912 -10.10526,7.64912 z"/>
		<path d="M 460.60143,332.10526 H 448.3909 L 425.02248,390 h 14.17544 l 4.2807,-11.57895 h 22.03509 L 469.79441,390 h 14.17544 z m 0.42105,34.73685 H 447.96985 L 454.42599,350 h 0.14035 z"/>
		<path d="m 484.08388,343.68421 h 13.75439 V 390 h 13.19298 v -46.31579 h 13.75439 v -11.57895 h -40.70176 z"/>
		<path d="M 534.53673,332.10526 V 390 h 13.19299 V 367.12281 L 565.41393,390 h 16.77193 l -19.92983,-23.92982 c 7.08772,-2.24562 11.85965,-8.07018 11.85965,-16.77193 0,-11.36842 -8.14035,-17.19299 -18.87719,-17.19299 z m 13.19299,25.68421 v -15.15789 h 1.54386 c 4.98245,0 10.94736,0.35088 10.94736,7.57895 0,7.22807 -5.96491,7.57894 -10.94736,7.57894 z"/>
		<path d="M 603.03124,332.10526 H 589.83826 V 390 h 13.19298 z"/>
		<path d="m 645.108,378.07018 c -13.26316,0 -19.08772,-9.26316 -19.08772,-17.05264 0,-7.71929 5.82456,-16.98245 19.08772,-16.98245 6.73684,0 11.36842,3.57895 11.36842,3.57895 l 5.61404,-11.22807 c 0,0 -6.45614,-5.33334 -19.01755,-5.33334 -16.42105,0 -31.36842,13.47369 -31.36842,30.10527 0,16.5614 15.01755,29.89473 31.36842,29.89473 12.56141,0 19.01755,-5.33333 19.01755,-5.33333 l -5.61404,-11.22807 c 0,0 -4.63158,3.57895 -11.36842,3.57895 z"/>
		<path d="m 724.90845,390 -26.94736,-30.45614 23.29824,-27.4386 h -16 l -19.85965,23.64913 V 332.10526 H 672.2067 V 390 h 13.19298 V 365.4386 L 706.73302,390 Z"/>
		<path d="m 769.824,366.77193 h 18.66667 V 390 h 13.19298 v -57.89474 h -13.19298 v 23.08772 H 769.824 V 332.10526 H 756.63102 V 390 H 769.824 Z"/>
		<path d="m 848.20777,332.10526 h -33.1228 V 390 h 33.1228 v -11.57895 h -19.92982 v -11.64912 h 19.08772 v -11.57895 h -19.08772 v -11.50877 h 19.92982 z"/>
		<path d="m 873.98519,354.07018 h 0.14035 L 897.14309,390 h 13.19298 v -57.89474 h -13.19298 v 35.92983 h -0.14035 L 873.98519,332.10526 H 860.79221 V 390 h 13.19298 z"/>
		<path d="M 923.7692,332.10526 V 390 h 13.19298 V 367.12281 L 954.64639,390 h 16.77193 L 951.4885,366.07018 c 7.08772,-2.24562 11.85965,-8.07018 11.85965,-16.77193 0,-11.36842 -8.14035,-17.19299 -18.87719,-17.19299 z m 13.19298,25.68421 v -15.15789 h 1.54386 c 4.98246,0 10.94737,0.35088 10.94737,7.57895 0,7.22807 -5.96491,7.57894 -10.94737,7.57894 z"/>
		<path d="m 966.45012,332.10526 21.33333,31.92983 V 390 h 13.19295 v -25.96491 l 21.3334,-31.92983 h -15.8597 l -12.07016,18.52632 -12.07018,-18.52632 z"/>
	</g>
</svg>
